<svg width="40" height="40" viewBox="0 0 40 40" fill="none" xmlns="http://www.w3.org/2000/svg">
<circle cx="20" cy="20" r="20" fill="#047CD1"/>
<path d="M29.7025 14.1141C29.0067 14.4225 28.2592 14.6308 27.4733 14.725C28.2842 14.2398 28.8908 13.4762 29.18 12.5766C28.4182 13.0291 27.5844 13.3476 26.715 13.5183C26.1303 12.894 25.3559 12.4803 24.5119 12.3412C23.668 12.2022 22.8017 12.3456 22.0477 12.7494C21.2936 13.1531 20.694 13.7945 20.3418 14.5739C19.9896 15.3534 19.9046 16.2273 20.1 17.06C18.5564 16.9825 17.0463 16.5813 15.6678 15.8824C14.2893 15.1835 13.0732 14.2026 12.0983 13.0033C11.765 13.5783 11.5733 14.245 11.5733 14.955C11.573 15.5941 11.7303 16.2235 12.0316 16.7873C12.3328 17.351 12.7685 17.8317 13.3 18.1866C12.6836 18.167 12.0807 18.0005 11.5417 17.7008V17.7508C11.5416 18.6473 11.8517 19.5161 12.4193 20.21C12.9869 20.9038 13.7771 21.3799 14.6558 21.5575C14.084 21.7122 13.4844 21.735 12.9025 21.6242C13.1504 22.3955 13.6333 23.07 14.2836 23.5533C14.9339 24.0365 15.7191 24.3043 16.5292 24.3192C15.154 25.3987 13.4557 25.9842 11.7075 25.9816C11.3978 25.9817 11.0884 25.9636 10.7808 25.9275C12.5554 27.0685 14.6211 27.674 16.7308 27.6716C23.8725 27.6716 27.7767 21.7566 27.7767 16.6266C27.7767 16.46 27.7725 16.2916 27.765 16.125C28.5244 15.5758 29.1799 14.8957 29.7008 14.1166L29.7025 14.1141Z" fill="white"/>
</svg>
