<svg width="40" height="40" viewBox="0 0 40 40" fill="none" xmlns="http://www.w3.org/2000/svg">
<circle cx="20" cy="20" r="20" fill="black"/>
<path d="M28.2519 16.5857C28.2425 15.886 28.1115 15.1931 27.8647 14.5382C27.6507 13.9858 27.3238 13.4841 26.9049 13.0652C26.486 12.6463 25.9843 12.3194 25.4319 12.1054C24.7854 11.8627 24.1025 11.7315 23.4121 11.7173C22.5232 11.6776 22.2414 11.6665 19.9851 11.6665C17.7287 11.6665 17.4395 11.6665 16.5571 11.7173C15.867 11.7316 15.1844 11.8628 14.5382 12.1054C13.9857 12.3193 13.484 12.6461 13.0651 13.0651C12.6461 13.484 12.3193 13.9857 12.1054 14.5382C11.8622 15.1842 11.7313 15.867 11.7182 16.5571C11.6785 17.4469 11.6665 17.7287 11.6665 19.9851C11.6665 22.2414 11.6665 22.5297 11.7182 23.413C11.7321 24.1041 11.8624 24.786 12.1054 25.4337C12.3196 25.9861 12.6467 26.4876 13.0658 26.9063C13.4849 27.3251 13.9867 27.6518 14.5391 27.8656C15.1836 28.1181 15.8663 28.2587 16.558 28.2814C17.4478 28.3212 17.7296 28.3332 19.986 28.3332C22.2423 28.3332 22.5315 28.3332 23.4139 28.2814C24.1043 28.2678 24.7873 28.1369 25.4337 27.8943C25.986 27.68 26.4875 27.353 26.9064 26.9341C27.3253 26.5153 27.6523 26.0137 27.8666 25.4615C28.1096 24.8147 28.2399 24.1328 28.2537 23.4407C28.2934 22.5519 28.3055 22.27 28.3055 20.0128C28.3036 17.7564 28.3036 17.47 28.2519 16.5857ZM19.9795 24.252C17.6197 24.252 15.708 22.3403 15.708 19.9804C15.708 17.6206 17.6197 15.7089 19.9795 15.7089C21.1124 15.7089 22.1989 16.1589 22.9999 16.96C23.801 17.7611 24.251 18.8476 24.251 19.9804C24.251 21.1133 23.801 22.1998 22.9999 23.0009C22.1989 23.8019 21.1124 24.252 19.9795 24.252ZM24.4211 16.5469C24.2902 16.5471 24.1606 16.5214 24.0397 16.4714C23.9188 16.4214 23.809 16.348 23.7165 16.2555C23.624 16.163 23.5506 16.0531 23.5006 15.9322C23.4506 15.8113 23.4249 15.6817 23.425 15.5509C23.425 15.4202 23.4508 15.2907 23.5008 15.1699C23.5508 15.0491 23.6242 14.9394 23.7166 14.8469C23.8091 14.7545 23.9188 14.6811 24.0396 14.6311C24.1604 14.5811 24.2899 14.5553 24.4206 14.5553C24.5513 14.5553 24.6808 14.5811 24.8016 14.6311C24.9224 14.6811 25.0321 14.7545 25.1246 14.8469C25.217 14.9394 25.2904 15.0491 25.3404 15.1699C25.3904 15.2907 25.4162 15.4202 25.4162 15.5509C25.4162 16.1016 24.9708 16.5469 24.4211 16.5469Z" fill="white"/>
<path d="M19.9798 22.755C21.5122 22.755 22.7545 21.5127 22.7545 19.9803C22.7545 18.4478 21.5122 17.2056 19.9798 17.2056C18.4474 17.2056 17.2051 18.4478 17.2051 19.9803C17.2051 21.5127 18.4474 22.755 19.9798 22.755Z" fill="white"/>
</svg>
