<svg width="89" height="22" viewBox="0 0 89 22" fill="none" xmlns="http://www.w3.org/2000/svg">
<path d="M24.0181 8.20972V6.83228H30.5073V8.20972H28.0883V14.7328H26.4371V8.20972H24.0181Z" fill="#202020"/>
<path d="M34.2474 14.8487C33.6413 14.8487 33.1184 14.7245 32.6781 14.4761C32.2377 14.2277 31.899 13.8763 31.6619 13.4205C31.4262 12.9632 31.3091 12.4227 31.3091 11.7975C31.3091 11.1878 31.4262 10.6536 31.6619 10.1942C31.899 9.7334 32.2328 9.37422 32.6639 9.11595C33.0944 8.85838 33.6011 8.72925 34.1825 8.72925C34.7033 8.72925 35.174 8.84074 35.5938 9.06232C36.0151 9.28248 36.3489 9.61697 36.5959 10.0644C36.8443 10.5103 36.9685 11.0685 36.9685 11.7382V12.1898H32.9321V12.1954C32.9321 12.6379 33.0521 12.9858 33.2934 13.2398C33.5361 13.4939 33.8636 13.6209 34.2757 13.6209C34.5502 13.6209 34.7873 13.5637 34.987 13.4487C35.1881 13.3323 35.3299 13.1608 35.4132 12.935L36.9318 13.0366C36.8167 13.5863 36.5239 14.0259 36.0539 14.3548C35.5833 14.6843 34.9813 14.8487 34.2474 14.8487ZM32.9321 11.1708H35.4217C35.4174 10.8194 35.3038 10.5294 35.0801 10.3015C34.8557 10.0721 34.565 9.95709 34.2079 9.95709C33.8424 9.95709 33.5432 10.0756 33.3103 10.3127C33.0768 10.5484 32.9504 10.8342 32.9321 11.1708Z" fill="#202020"/>
<path d="M42.9709 10.4962L41.4665 10.5894C41.4248 10.3995 41.3204 10.2365 41.1532 10.101C40.9873 9.96415 40.7615 9.895 40.4757 9.895C40.2217 9.895 40.0058 9.94863 39.8293 10.0559C39.6522 10.1617 39.5654 10.3036 39.5697 10.4821C39.5654 10.6232 39.6212 10.7432 39.7362 10.8406C39.8505 10.9387 40.0453 11.017 40.3205 11.0749L41.3931 11.2922C42.5334 11.5258 43.1043 12.06 43.1064 12.8955C43.1064 13.285 42.9921 13.6265 42.7649 13.9201C42.5369 14.2122 42.2243 14.4394 41.8278 14.6031C41.4326 14.7669 40.9789 14.8487 40.4673 14.8487C39.6826 14.8487 39.0566 14.685 38.5902 14.3576C38.1252 14.0287 37.8542 13.5814 37.7773 13.0168L39.3947 12.9321C39.4455 13.1735 39.564 13.3555 39.7503 13.4797C39.938 13.6025 40.1779 13.6632 40.4701 13.6632C40.7594 13.6632 40.9923 13.6068 41.1673 13.4939C41.3437 13.3809 41.4333 13.237 41.4354 13.062C41.4277 12.7684 41.1743 12.5723 40.6761 12.4721L39.6487 12.2688C38.5027 12.0395 37.9311 11.475 37.9354 10.5753C37.9332 10.0037 38.1619 9.55275 38.6213 9.22321C39.0799 8.89437 39.6889 8.72925 40.4475 8.72925C41.1962 8.72925 41.7861 8.88732 42.2173 9.20345C42.6477 9.51959 42.899 9.95074 42.9709 10.4962Z" fill="#202020"/>
<path d="M47.2944 8.80846V10.0419H46.1795V12.9126C46.1795 13.1384 46.2303 13.2922 46.3319 13.3727C46.4349 13.4517 46.5697 13.4912 46.7355 13.4912C46.8125 13.4912 46.8894 13.4849 46.967 13.4714C47.0439 13.4566 47.1032 13.4453 47.1448 13.4376L47.4017 14.6598C47.3205 14.6866 47.2048 14.7162 47.0545 14.7501C46.9056 14.7854 46.725 14.8073 46.5126 14.815C45.9142 14.839 45.4343 14.7099 45.073 14.4255C44.7117 14.1418 44.5325 13.7085 44.5367 13.1271V10.0419H43.7266V8.80846H44.5367V7.38867H46.1795V8.80846H47.2944Z" fill="#202020"/>
<path d="M48.3618 14.733V8.80832H50.0074V14.733H48.3618ZM49.107 8.04339C48.8657 8.04339 48.6582 7.96153 48.4832 7.79782C48.3082 7.63411 48.2207 7.43864 48.2207 7.21071C48.2207 6.98137 48.3082 6.78591 48.4832 6.62361C48.6582 6.46201 48.8657 6.38086 49.107 6.38086C49.3512 6.38086 49.5615 6.46201 49.7365 6.62361C49.9115 6.78591 49.999 6.98137 49.999 7.21071C49.999 7.43864 49.9115 7.63411 49.7365 7.79782C49.5615 7.96153 49.3512 8.04339 49.107 8.04339Z" fill="#202020"/>
<path d="M51.3159 14.733V8.80828H52.8825V9.85266H52.953C53.0772 9.50265 53.2833 9.22815 53.5712 9.02845C53.8605 8.82945 54.2049 8.72925 54.6043 8.72925C55.0107 8.72925 55.3558 8.83086 55.6402 9.03409C55.926 9.23591 56.1172 9.50829 56.2132 9.85266H56.2753C56.3952 9.51394 56.6147 9.24226 56.933 9.03692C57.2505 8.83227 57.6273 8.72925 58.062 8.72925C58.6131 8.72925 59.0619 8.90566 59.4084 9.25708C59.7542 9.60709 59.9278 10.1039 59.9278 10.7474V14.733H58.2878V11.072C58.2878 10.7432 58.2003 10.4962 58.0253 10.3325C57.8503 10.1674 57.6316 10.0841 57.3705 10.0841C57.0713 10.0841 56.8377 10.1794 56.6705 10.3692C56.5046 10.5597 56.4221 10.8081 56.4221 11.1144V14.733H54.8273V11.0382C54.8273 10.7467 54.744 10.5153 54.5789 10.3438C54.4131 10.1709 54.195 10.0841 53.924 10.0841C53.6509 10.0841 53.4223 10.1843 53.2381 10.3833C53.0532 10.583 52.9615 10.8476 52.9615 11.1765V14.733H51.3159Z" fill="#202020"/>
<path d="M63.9021 14.8487C63.3016 14.8487 62.7829 14.721 62.3468 14.4648C61.9122 14.2094 61.5763 13.8516 61.3392 13.3922C61.1035 12.9336 60.9863 12.4001 60.9863 11.7918C60.9863 11.1807 61.1035 10.6451 61.3392 10.1857C61.5763 9.72705 61.9122 9.36928 62.3468 9.11313C62.7829 8.85768 63.3016 8.72925 63.9021 8.72925C64.5005 8.72925 65.0178 8.85768 65.4546 9.11313C65.8907 9.36928 66.2265 9.72705 66.4622 10.1857C66.6993 10.6451 66.8179 11.1807 66.8179 11.7918C66.8179 12.4001 66.6993 12.9336 66.4622 13.3922C66.2265 13.8516 65.8907 14.2094 65.4546 14.4648C65.0178 14.721 64.5005 14.8487 63.9021 14.8487ZM63.9106 13.5757C64.317 13.5757 64.6247 13.4064 64.8336 13.0676C65.0425 12.7275 65.1469 12.2985 65.1469 11.7805C65.1469 11.2654 65.0425 10.837 64.8336 10.4962C64.6247 10.154 64.317 9.9825 63.9106 9.9825C63.4964 9.9825 63.183 10.154 62.9706 10.4962C62.7596 10.837 62.6545 11.2654 62.6545 11.7805C62.6545 12.2985 62.7596 12.7275 62.9706 13.0676C63.183 13.4064 63.4964 13.5757 63.9106 13.5757Z" fill="#202020"/>
<path d="M69.5352 11.3063V14.733H67.8896V8.80828H69.4562V9.85266H69.5268C69.6601 9.50829 69.8803 9.23591 70.1873 9.03409C70.4956 8.83086 70.8689 8.72925 71.3079 8.72925C71.9246 8.72925 72.42 8.92895 72.7926 9.32765C73.1666 9.72493 73.3543 10.269 73.3543 10.9591V14.733H71.7115V11.2527C71.7129 10.89 71.6198 10.6063 71.4321 10.4031C71.2436 10.1984 70.9847 10.0954 70.6558 10.0954C70.3242 10.0954 70.0553 10.202 69.8486 10.4144C69.6411 10.6275 69.5367 10.9246 69.5352 11.3063Z" fill="#202020"/>
<path d="M74.643 14.733V8.80832H76.2886V14.733H74.643ZM75.3882 8.04339C75.1469 8.04339 74.9394 7.96153 74.7644 7.79782C74.5894 7.63411 74.5019 7.43864 74.5019 7.21071C74.5019 6.98137 74.5894 6.78591 74.7644 6.62361C74.9394 6.46201 75.1469 6.38086 75.3882 6.38086C75.6324 6.38086 75.8426 6.46201 76.0176 6.62361C76.1926 6.78591 76.2802 6.98137 76.2802 7.21071C76.2802 7.43864 76.1926 7.63411 76.0176 7.79782C75.8426 7.96153 75.6324 8.04339 75.3882 8.04339Z" fill="#202020"/>
<path d="M79.2886 14.8459C78.722 14.8459 78.2527 14.6984 77.8801 14.4027C77.5075 14.1057 77.3212 13.6646 77.3212 13.0789C77.3212 12.6372 77.4243 12.29 77.6317 12.0374C77.8406 11.7855 78.1144 11.6013 78.4531 11.4841C78.7918 11.3656 79.1566 11.2887 79.5483 11.2527C80.062 11.2019 80.4289 11.1482 80.6491 11.0918C80.8707 11.0353 80.9822 10.9111 80.9822 10.7192V10.6966C80.9822 10.4525 80.9046 10.2633 80.7507 10.1293C80.5983 9.9959 80.3817 9.92887 80.1015 9.92887C79.8059 9.92887 79.5709 9.99379 79.3959 10.1236C79.2209 10.2521 79.1051 10.4144 79.0487 10.6119L77.5301 10.4877C77.643 9.94792 77.9232 9.51959 78.3712 9.20345C78.8208 8.88732 79.4001 8.72925 80.11 8.72925C80.5503 8.72925 80.961 8.79911 81.3435 8.93812C81.7274 9.07784 82.0364 9.29519 82.2721 9.59015C82.5071 9.88371 82.625 10.2662 82.625 10.7361V14.733H81.0669V13.9116H81.0217C80.8763 14.1868 80.6604 14.4112 80.3725 14.5862C80.086 14.7591 79.7247 14.8459 79.2886 14.8459ZM79.76 13.7112C80.1192 13.7112 80.4148 13.6068 80.6463 13.3979C80.8777 13.1876 80.9935 12.9265 80.9935 12.616V11.9866C80.9293 12.0303 80.8298 12.0684 80.6943 12.1023C80.5588 12.1362 80.4148 12.1658 80.2624 12.1898C80.11 12.2145 79.9731 12.235 79.8531 12.2519C79.5652 12.2935 79.3324 12.3747 79.1559 12.4946C78.9788 12.6153 78.8906 12.791 78.8906 13.0225C78.8906 13.2504 78.9725 13.4226 79.1362 13.539C79.2999 13.654 79.5074 13.7112 79.76 13.7112Z" fill="#202020"/>
<path d="M85.5483 6.83228V14.7328H83.9027V6.83228H85.5483Z" fill="#202020"/>
<path d="M11.2965 2.51855C6.69565 2.51855 2.96625 6.24866 2.96625 10.8489C2.96625 15.4497 6.69565 19.1791 11.2965 19.1791C15.8967 19.1791 19.6268 15.449 19.6268 10.8489C19.6268 6.24866 15.8967 2.51855 11.2965 2.51855ZM9.25578 13.0858C9.25578 13.536 8.89096 13.9001 8.44145 13.9001C7.99124 13.9001 7.62712 13.536 7.62712 13.0858V9.61395C7.62712 9.16374 7.99124 8.79891 8.44145 8.79891C8.89096 8.79891 9.25578 9.16374 9.25578 9.61395V13.0858ZM15.0083 13.0272C15.0083 13.6637 14.6364 13.8917 13.9999 13.8917H11.0714C10.4349 13.8917 9.9191 13.3758 9.9191 12.7393V9.85881C9.9191 9.85881 9.86194 9.37967 10.3926 8.92946C10.6925 8.67472 11.1378 8.18852 11.449 7.59859C12.0671 6.42649 12.4369 6.08495 12.7184 6.17669C13.7614 6.5147 13.2399 8.0608 12.9033 8.70647H13.856C14.4918 8.70647 15.0083 9.22231 15.0083 9.85881V13.0272Z" fill="#4F7EAB"/>
</svg>
