<svg width="89" height="22" viewBox="0 0 89 22" fill="none" xmlns="http://www.w3.org/2000/svg">
<path d="M24.1482 8.20972V6.83228H30.6374V8.20972H28.2184V14.7328H26.5672V8.20972H24.1482Z" fill="#202020"/>
<path d="M34.3776 14.8487C33.7714 14.8487 33.2485 14.7245 32.8082 14.4761C32.3679 14.2277 32.0291 13.8763 31.792 13.4205C31.5563 12.9632 31.4392 12.4227 31.4392 11.7975C31.4392 11.1878 31.5563 10.6536 31.792 10.1942C32.0291 9.7334 32.3629 9.37422 32.7941 9.11595C33.2245 8.85838 33.7312 8.72925 34.3126 8.72925C34.8334 8.72925 35.3041 8.84074 35.724 9.06232C36.1452 9.28248 36.479 9.61697 36.726 10.0644C36.9744 10.5103 37.0986 11.0685 37.0986 11.7382V12.1898H33.0622V12.1954C33.0622 12.6379 33.1822 12.9858 33.4235 13.2398C33.6663 13.4939 33.9937 13.6209 34.4058 13.6209C34.6803 13.6209 34.9174 13.5637 35.1171 13.4487C35.3182 13.3323 35.4601 13.1608 35.5433 12.935L37.0619 13.0366C36.9469 13.5863 36.654 14.0259 36.1841 14.3548C35.7134 14.6843 35.1115 14.8487 34.3776 14.8487ZM33.0622 11.1708H35.5518C35.5476 10.8194 35.4339 10.5294 35.2102 10.3015C34.9858 10.0721 34.6951 9.95709 34.3381 9.95709C33.9725 9.95709 33.6733 10.0756 33.4405 10.3127C33.2069 10.5484 33.0806 10.8342 33.0622 11.1708Z" fill="#202020"/>
<path d="M43.1011 10.4962L41.5966 10.5894C41.555 10.3995 41.4505 10.2365 41.2833 10.101C41.1174 9.96415 40.8916 9.895 40.6058 9.895C40.3518 9.895 40.1359 9.94863 39.9595 10.0559C39.7823 10.1617 39.6955 10.3036 39.6998 10.4821C39.6955 10.6232 39.7513 10.7432 39.8663 10.8406C39.9806 10.9387 40.1754 11.017 40.4506 11.0749L41.5232 11.2922C42.6635 11.5258 43.2344 12.06 43.2365 12.8955C43.2365 13.285 43.1222 13.6265 42.895 13.9201C42.6671 14.2122 42.3545 14.4394 41.9579 14.6031C41.5627 14.7669 41.109 14.8487 40.5974 14.8487C39.8127 14.8487 39.1868 14.685 38.7203 14.3576C38.2553 14.0287 37.9843 13.5814 37.9074 13.0168L39.5248 12.9321C39.5756 13.1735 39.6941 13.3555 39.8804 13.4797C40.0681 13.6025 40.3081 13.6632 40.6002 13.6632C40.8895 13.6632 41.1224 13.6068 41.2974 13.4939C41.4738 13.3809 41.5634 13.237 41.5655 13.062C41.5578 12.7684 41.3044 12.5723 40.8063 12.4721L39.7788 12.2688C38.6328 12.0395 38.0612 11.475 38.0655 10.5753C38.0634 10.0037 38.292 9.55275 38.7514 9.22321C39.2101 8.89437 39.819 8.72925 40.5776 8.72925C41.3263 8.72925 41.9163 8.88732 42.3474 9.20345C42.7779 9.51959 43.0291 9.95074 43.1011 10.4962Z" fill="#202020"/>
<path d="M47.4246 8.80846V10.0419H46.3096V12.9126C46.3096 13.1384 46.3605 13.2922 46.4621 13.3727C46.5651 13.4517 46.6999 13.4912 46.8657 13.4912C46.9426 13.4912 47.0195 13.4849 47.0972 13.4714C47.1741 13.4566 47.2334 13.4453 47.275 13.4376L47.5318 14.6598C47.4507 14.6866 47.335 14.7162 47.1847 14.7501C47.0358 14.7854 46.8551 14.8073 46.6427 14.815C46.0443 14.839 45.5645 14.7099 45.2032 14.4255C44.8419 14.1418 44.6626 13.7085 44.6669 13.1271V10.0419H43.8568V8.80846H44.6669V7.38867H46.3096V8.80846H47.4246Z" fill="#202020"/>
<path d="M48.492 14.733V8.80832H50.1376V14.733H48.492ZM49.2372 8.04339C48.9959 8.04339 48.7884 7.96153 48.6134 7.79782C48.4384 7.63411 48.3509 7.43864 48.3509 7.21071C48.3509 6.98137 48.4384 6.78591 48.6134 6.62361C48.7884 6.46201 48.9959 6.38086 49.2372 6.38086C49.4814 6.38086 49.6916 6.46201 49.8666 6.62361C50.0416 6.78591 50.1291 6.98137 50.1291 7.21071C50.1291 7.43864 50.0416 7.63411 49.8666 7.79782C49.6916 7.96153 49.4814 8.04339 49.2372 8.04339Z" fill="#202020"/>
<path d="M51.4461 14.733V8.80828H53.0126V9.85266H53.0832C53.2074 9.50265 53.4135 9.22815 53.7014 9.02845C53.9907 8.82945 54.335 8.72925 54.7344 8.72925C55.1409 8.72925 55.486 8.83086 55.7704 9.03409C56.0561 9.23591 56.2474 9.50829 56.3433 9.85266H56.4054C56.5254 9.51394 56.7449 9.24226 57.0631 9.03692C57.3807 8.83227 57.7575 8.72925 58.1922 8.72925C58.7433 8.72925 59.1921 8.90566 59.5386 9.25708C59.8843 9.60709 60.0579 10.1039 60.0579 10.7474V14.733H58.418V11.072C58.418 10.7432 58.3305 10.4962 58.1555 10.3325C57.9805 10.1674 57.7617 10.0841 57.5006 10.0841C57.2014 10.0841 56.9679 10.1794 56.8006 10.3692C56.6348 10.5597 56.5522 10.8081 56.5522 11.1144V14.733H54.9574V11.0382C54.9574 10.7467 54.8742 10.5153 54.709 10.3438C54.5432 10.1709 54.3252 10.0841 54.0542 10.0841C53.7811 10.0841 53.5525 10.1843 53.3683 10.3833C53.1834 10.583 53.0917 10.8476 53.0917 11.1765V14.733H51.4461Z" fill="#202020"/>
<path d="M64.0323 14.8487C63.4318 14.8487 62.9131 14.721 62.477 14.4648C62.0423 14.2094 61.7064 13.8516 61.4693 13.3922C61.2337 12.9336 61.1165 12.4001 61.1165 11.7918C61.1165 11.1807 61.2337 10.6451 61.4693 10.1857C61.7064 9.72705 62.0423 9.36928 62.477 9.11313C62.9131 8.85768 63.4318 8.72925 64.0323 8.72925C64.6307 8.72925 65.1479 8.85768 65.5847 9.11313C66.0208 9.36928 66.3567 9.72705 66.5924 10.1857C66.8295 10.6451 66.9481 11.1807 66.9481 11.7918C66.9481 12.4001 66.8295 12.9336 66.5924 13.3922C66.3567 13.8516 66.0208 14.2094 65.5847 14.4648C65.1479 14.721 64.6307 14.8487 64.0323 14.8487ZM64.0408 13.5757C64.4472 13.5757 64.7549 13.4064 64.9638 13.0676C65.1726 12.7275 65.2771 12.2985 65.2771 11.7805C65.2771 11.2654 65.1726 10.837 64.9638 10.4962C64.7549 10.154 64.4472 9.9825 64.0408 9.9825C63.6265 9.9825 63.3132 10.154 63.1008 10.4962C62.8898 10.837 62.7847 11.2654 62.7847 11.7805C62.7847 12.2985 62.8898 12.7275 63.1008 13.0676C63.3132 13.4064 63.6265 13.5757 64.0408 13.5757Z" fill="#202020"/>
<path d="M69.6654 11.3063V14.733H68.0198V8.80828H69.5864V9.85266H69.657C69.7903 9.50829 70.0105 9.23591 70.3175 9.03409C70.6258 8.83086 70.9991 8.72925 71.438 8.72925C72.0548 8.72925 72.5502 8.92895 72.9228 9.32765C73.2967 9.72493 73.4845 10.269 73.4845 10.9591V14.733H71.8417V11.2527C71.8431 10.89 71.7499 10.6063 71.5622 10.4031C71.3738 10.1984 71.1149 10.0954 70.786 10.0954C70.4544 10.0954 70.1855 10.202 69.9787 10.4144C69.7713 10.6275 69.6668 10.9246 69.6654 11.3063Z" fill="#202020"/>
<path d="M74.7732 14.733V8.80832H76.4187V14.733H74.7732ZM75.5183 8.04339C75.277 8.04339 75.0695 7.96153 74.8945 7.79782C74.7195 7.63411 74.632 7.43864 74.632 7.21071C74.632 6.98137 74.7195 6.78591 74.8945 6.62361C75.0695 6.46201 75.277 6.38086 75.5183 6.38086C75.7625 6.38086 75.9728 6.46201 76.1478 6.62361C76.3228 6.78591 76.4103 6.98137 76.4103 7.21071C76.4103 7.43864 76.3228 7.63411 76.1478 7.79782C75.9728 7.96153 75.7625 8.04339 75.5183 8.04339Z" fill="#202020"/>
<path d="M79.4187 14.8459C78.8521 14.8459 78.3828 14.6984 78.0102 14.4027C77.6376 14.1057 77.4514 13.6646 77.4514 13.0789C77.4514 12.6372 77.5544 12.29 77.7618 12.0374C77.9707 11.7855 78.2445 11.6013 78.5832 11.4841C78.9219 11.3656 79.2868 11.2887 79.6784 11.2527C80.1921 11.2019 80.5591 11.1482 80.7792 11.0918C81.0008 11.0353 81.1123 10.9111 81.1123 10.7192V10.6966C81.1123 10.4525 81.0347 10.2633 80.8809 10.1293C80.7284 9.9959 80.5118 9.92887 80.2316 9.92887C79.936 9.92887 79.701 9.99379 79.526 10.1236C79.351 10.2521 79.2353 10.4144 79.1788 10.6119L77.6602 10.4877C77.7731 9.94792 78.0533 9.51959 78.5014 9.20345C78.9509 8.88732 79.5302 8.72925 80.2401 8.72925C80.6804 8.72925 81.0911 8.79911 81.4736 8.93812C81.8575 9.07784 82.1666 9.29519 82.4023 9.59015C82.6372 9.88371 82.7551 10.2662 82.7551 10.7361V14.733H81.197V13.9116H81.1518C81.0065 14.1868 80.7905 14.4112 80.5026 14.5862C80.2161 14.7591 79.8548 14.8459 79.4187 14.8459ZM79.8901 13.7112C80.2493 13.7112 80.545 13.6068 80.7764 13.3979C81.0079 13.1876 81.1236 12.9265 81.1236 12.616V11.9866C81.0594 12.0303 80.9599 12.0684 80.8244 12.1023C80.6889 12.1362 80.545 12.1658 80.3925 12.1898C80.2401 12.2145 80.1032 12.235 79.9833 12.2519C79.6953 12.2935 79.4625 12.3747 79.2861 12.4946C79.1089 12.6153 79.0207 12.791 79.0207 13.0225C79.0207 13.2504 79.1026 13.4226 79.2663 13.539C79.43 13.654 79.6375 13.7112 79.8901 13.7112Z" fill="#202020"/>
<path d="M85.6785 6.83228V14.7328H84.0329V6.83228H85.6785Z" fill="#202020"/>
<path d="M11.4267 2.51855C6.82581 2.51855 3.09641 6.24867 3.09641 10.8489C3.09641 15.4497 6.82581 19.1791 11.4267 19.1791C16.0269 19.1791 19.757 15.449 19.757 10.8489C19.757 6.24867 16.0269 2.51855 11.4267 2.51855ZM9.38594 13.0858C9.38594 13.536 9.02111 13.9001 8.57161 13.9001C8.1214 13.9001 7.75728 13.536 7.75728 13.0858V9.61395C7.75728 9.16374 8.1214 8.79891 8.57161 8.79891C9.02111 8.79891 9.38594 9.16374 9.38594 9.61395V13.0858ZM15.1385 13.0272C15.1385 13.6637 14.7666 13.8917 14.1301 13.8917H11.2016C10.5651 13.8917 10.0493 13.3758 10.0493 12.7393V9.85881C10.0493 9.85881 9.9921 9.37967 10.5228 8.92946C10.8227 8.67472 11.2679 8.18852 11.5791 7.59859C12.1973 6.42649 12.567 6.08495 12.8486 6.17669C13.8916 6.5147 13.3701 8.0608 13.0335 8.70647H13.9861C14.6219 8.70647 15.1385 9.22231 15.1385 9.85881V13.0272Z" fill="#4F7EAB"/>
</svg>
