<svg width="32" height="32" viewBox="0 0 32 32" fill="none" xmlns="http://www.w3.org/2000/svg">
<path fill-rule="evenodd" clip-rule="evenodd" d="M14.8492 20.765C18.1164 20.765 20.765 18.1164 20.765 14.8491C20.765 11.5819 18.1164 8.93333 14.8492 8.93333C11.582 8.93333 8.93335 11.5819 8.93335 14.8491C8.93335 18.1164 11.582 20.765 14.8492 20.765ZM14.8492 23.0316C19.3682 23.0316 23.0317 19.3682 23.0317 14.8491C23.0317 10.3301 19.3682 6.66666 14.8492 6.66666C10.3301 6.66666 6.66669 10.3301 6.66669 14.8491C6.66669 19.3682 10.3301 23.0316 14.8492 23.0316Z" fill="black"/>
<path fill-rule="evenodd" clip-rule="evenodd" d="M19.8924 19.8924C19.4498 20.335 19.4498 21.0526 19.8924 21.4952L23.1986 24.8014C23.6412 25.244 24.3588 25.244 24.8014 24.8014C25.244 24.3588 25.244 23.6412 24.8014 23.1986L21.4952 19.8924C21.0526 19.4498 20.335 19.4498 19.8924 19.8924Z" fill="black"/>
</svg>
