<svg width="22" height="22" viewBox="0 0 22 22" fill="none" xmlns="http://www.w3.org/2000/svg">
<path d="M10.2249 2.7846C10.4426 2.11446 11.3907 2.11445 11.6084 2.7846L13.0396 7.18942C13.137 7.48911 13.4163 7.69203 13.7314 7.69203H18.3629C19.0676 7.69203 19.3605 8.5937 18.7905 9.00787L15.0435 11.7302C14.7886 11.9154 14.6819 12.2437 14.7793 12.5434L16.2105 16.9483C16.4282 17.6184 15.6612 18.1757 15.0912 17.7615L11.3442 15.0392C11.0893 14.8539 10.744 14.8539 10.4891 15.0392L6.74214 17.7615C6.17209 18.1757 5.40508 17.6184 5.62282 16.9483L7.05403 12.5434C7.15141 12.2437 7.04473 11.9154 6.7898 11.7302L3.04283 9.00787C2.47278 8.5937 2.76575 7.69203 3.47038 7.69203H8.10188C8.417 7.69203 8.69628 7.48911 8.79366 7.18942L10.2249 2.7846Z" fill="#4F7EAB"/>
</svg>
