<svg width="21" height="22" viewBox="0 0 21 22" fill="none" xmlns="http://www.w3.org/2000/svg">
<path d="M9.49155 2.7846C9.70929 2.11446 10.6574 2.11445 10.8751 2.7846L12.3063 7.18942C12.4037 7.48911 12.683 7.69203 12.9981 7.69203H17.6296C18.3342 7.69203 18.6272 8.5937 18.0571 9.00787L14.3102 11.7302C14.0552 11.9154 13.9486 12.2437 14.0459 12.5434L15.4772 16.9483C15.6949 17.6184 14.9279 18.1757 14.3578 17.7615L10.6109 15.0392C10.3559 14.8539 10.0107 14.8539 9.75579 15.0392L6.00882 17.7615C5.43876 18.1757 4.67176 17.6184 4.8895 16.9483L6.32071 12.5434C6.41809 12.2437 6.31141 11.9154 6.05647 11.7302L2.30951 9.00787C1.73945 8.5937 2.03242 7.69203 2.73706 7.69203H7.36856C7.68368 7.69203 7.96296 7.48911 8.06034 7.18942L9.49155 2.7846Z" fill="#4F7EAB"/>
</svg>
