<svg width="21" height="22" viewBox="0 0 21 22" fill="none" xmlns="http://www.w3.org/2000/svg">
<path d="M9.59153 2.7846C9.80927 2.11446 10.7573 2.11445 10.9751 2.7846L12.4063 7.18942C12.5037 7.48911 12.783 7.69203 13.0981 7.69203H17.7296C18.4342 7.69203 18.7272 8.5937 18.1571 9.00787L14.4102 11.7302C14.1552 11.9154 14.0485 12.2437 14.1459 12.5434L15.5771 16.9483C15.7949 17.6184 15.0279 18.1757 14.4578 17.7615L10.7108 15.0392C10.4559 14.8539 10.1107 14.8539 9.85576 15.0392L6.1088 17.7615C5.53874 18.1757 4.77173 17.6184 4.98947 16.9483L6.42069 12.5434C6.51806 12.2437 6.41139 11.9154 6.15645 11.7302L2.40949 9.00787C1.83943 8.5937 2.1324 7.69203 2.83703 7.69203H7.46853C7.78365 7.69203 8.06293 7.48911 8.16031 7.18942L9.59153 2.7846Z" fill="#4F7EAB"/>
</svg>
