<svg width="21" height="22" viewBox="0 0 21 22" fill="none" xmlns="http://www.w3.org/2000/svg">
<path d="M9.95819 2.7846C10.1759 2.11446 11.124 2.11445 11.3418 2.7846L12.773 7.18942C12.8703 7.48911 13.1496 7.69203 13.4647 7.69203H18.0962C18.8009 7.69203 19.0938 8.5937 18.5238 9.00787L14.7768 11.7302C14.5219 11.9154 14.4152 12.2437 14.5126 12.5434L15.9438 16.9483C16.1615 17.6184 15.3945 18.1757 14.8245 17.7615L11.0775 15.0392C10.8226 14.8539 10.4774 14.8539 10.2224 15.0392L6.47547 17.7615C5.90541 18.1757 5.1384 17.6184 5.35614 16.9483L6.78736 12.5434C6.88473 12.2437 6.77806 11.9154 6.52312 11.7302L2.77616 9.00787C2.2061 8.5937 2.49907 7.69203 3.2037 7.69203H7.8352C8.15032 7.69203 8.4296 7.48911 8.52698 7.18942L9.95819 2.7846Z" fill="#4F7EAB"/>
</svg>
