<svg width="21" height="22" viewBox="0 0 21 22" fill="none" xmlns="http://www.w3.org/2000/svg">
<path d="M9.8582 2.7846C10.0759 2.11446 11.024 2.11445 11.2418 2.7846L12.673 7.18942C12.7704 7.48911 13.0496 7.69203 13.3648 7.69203H17.9963C18.7009 7.69203 18.9939 8.5937 18.4238 9.00787L14.6768 11.7302C14.4219 11.9154 14.3152 12.2437 14.4126 12.5434L15.8438 16.9483C16.0616 17.6184 15.2945 18.1757 14.7245 17.7615L10.9775 15.0392C10.7226 14.8539 10.3774 14.8539 10.1224 15.0392L6.37548 17.7615C5.80542 18.1757 5.03841 17.6184 5.25615 16.9483L6.68736 12.5434C6.78474 12.2437 6.67807 11.9154 6.42313 11.7302L2.67617 9.00787C2.10611 8.5937 2.39908 7.69203 3.10371 7.69203H7.73521C8.05033 7.69203 8.32961 7.48911 8.42699 7.18942L9.8582 2.7846Z" fill="#4F7EAB"/>
</svg>
